<svg height="150pt" viewBox="-1 0 512 512.00033" width="150pt" xmlns="http://www.w3.org/2000/svg"><path fill="white" d="m510.574219 10.050781c1.285156-3.953125-.875-8.203125-4.828125-9.492187-3.953125-1.289063-8.203125.871094-9.492188 4.828125-27.582031 84.664062-86.402344 111.671875-186.332031 136.007812 20.363281-18.953125 27.820313-44.042969 25.226563-71.738281-.390626-4.140625-4.054688-7.191406-8.199219-6.796875-4.140625.386719-7.183594 4.058594-6.796875 8.199219 3.6875 39.40625-16.261719 64.800781-53.488282 78.710937l11.816407-37.214843 24.609375-7.449219c3.980468-1.203125 6.230468-5.40625 5.023437-9.386719-1.203125-3.980469-5.410156-6.230469-9.386719-5.023438l-14.714843 4.457032 17.566406-55.320313c1.257813-3.960937-.933594-8.195312-4.898437-9.453125-3.960938-1.261718-8.195313.933594-9.453126 4.898438l-8.566406 26.980468-10.101562-12.042968c-2.671875-3.183594-7.417969-3.601563-10.605469-.933594-3.1875 2.671875-3.605469 7.421875-.933594 10.609375l16.238281 19.367187-21.28125 67.011719c-34.648437-45.488281-28.351562-93.140625 40.324219-130.117187 4.730469-2.546875 10.472657-.453125 12.71875 4.199218 3.664063 7.597657 6.765625 15.304688 9.207031 22.90625 1.273438 3.957032 5.515626 6.136719 9.472657 4.863282 3.960937-1.273438 6.136719-5.515625 4.863281-9.472656-2.65625-8.261719-6.015625-16.617188-9.980469-24.84375-5.949219-12.324219-21.121093-17.535157-33.421875-10.910157-45.605468 24.554688-68.734375 54.890625-68.734375 90.160157 0 27.742187 14.683594 51.117187 24.59375 63.738281-114.441406 27.28125-165.511719 111.765625-148.832031 205.210937-12.582031-14.417968-31.070312-23.558594-51.664062-23.558594-4.15625 0-7.527344 3.371094-7.527344 7.53125 0 4.15625 3.371094 7.527344 7.527344 7.527344 29.507812 0 53.515624 24.007813 53.515624 53.519532 0 22.777343-18.527343 41.304687-41.304687 41.304687-17.394531 0-31.539063-14.148437-31.539063-31.539063 0-13.082031 10.640626-23.726562 23.726563-23.726562 13.648437 0 21.351563 15.019531 15.511719 24.164062-4.855469-6.527343-14.152344-6.984374-19.679688-1.460937-5.089844 5.09375-5.089844 13.347656 0 18.4375 10.269532 10.269531 36.699219-.816406 36.699219-23.664063 0-17.941406-14.59375-32.535156-32.53125-32.535156-21.386719 0-38.785156 17.398438-38.785156 38.785156 0 25.695313 20.902343 46.601563 46.597656 46.601563 27.402344 0 50.289063-19.664063 55.324219-45.617187 3.617187 20.578124-1.652344 42.558593-16.296875 59.605468-20.214844 23.527344-55.800781 26.222656-79.324219 6.007813-3.15625-2.710938-7.910156-2.351563-10.617188.804687-2.710937 3.152344-2.351562 7.90625.804688 10.617188 42.160156 36.226562 110.503906 13.296875 120.527344-50.878906 38.898437 48.265624 106.734375 37.445312 127.585937-12.796876 1.59375-3.839843-.226562-8.246093-4.066406-9.839843s-8.246094.226562-9.839844 4.066406c-11.875 28.605469-44.828125 42.300781-73.515625 30.394531-20.757812-8.613281-35.367187-25.855468-41.417968-45.847656 26.144531 33.726562 80.628906 26.972656 93.207031-11.269531 3.886719-11.824219 2.941406-24.453125-2.671875-35.5625-9.660156-19.136719-32.96875-26.804688-52.105469-17.140625-25.007813 12.632812-22.957031 49.375 1.601563 57.453125 9.945312 3.269531 24.164062.828125 27.453124-9.164063 2.25-6.839844-1.472656-14.207031-8.3125-16.457031-7.40625-2.4375-15.519531 2.144531-16.90625 10.183594-2.027343-1.199219-3.679687-2.941407-4.765624-5.09375-7.605469-15.054688 8.007812-30.699219 25.828124-24.835938 14.664063 4.824219 20.160157 21.964844 15.574219 35.914063-9.613281 29.226562-55.46875 31.277344-71.238281.046875-13.300781-26.339844-2.691406-58.59375 23.648438-71.894531 3.710937-1.875 5.203124-6.40625 3.328124-10.117188s-6.402343-5.203125-10.117187-3.328125c-19.421875 9.808594-32.152344 27.664063-36.226563 47.488281-.933593 2.292969-1.761718 4.601563-2.492187 6.925782-8.964844-45.160157-1.234375-89.941407 26.800781-126.269532 10.453125 58.902344 48.6875 75.382813 80.355469 78.457032 4.148437.402343 7.820313-2.636719 8.222656-6.765626.398438-4.140624-2.628906-7.820312-6.769531-8.222656-37.722656-3.660156-60.273438-26.335937-67.199219-67.4375l34.300781 18.65625 2.65625 25.574219c.429688 4.152344 4.148438 7.140625 8.265626 6.714844 4.136718-.429688 7.140624-4.132813 6.710937-8.269531l-1.585937-15.296876c52.84375 28.367188 50.988281 28.644532 54.578124 28.644532 7.78125 0 10.441407-10.425782 3.605469-14.144532l-24.871093-13.523437 13.738281-7.632813c3.632812-2.019531 4.941406-6.605468 2.921875-10.238281-2.015625-3.636719-6.601563-4.945312-10.238282-2.925781l-22.09375 12.273438-61.769531-33.59375c10.132813-5.03125 26.109375-11.222657 43.398438-11.222657 35.238281 0 61.054687 25.390625 76.730469 75.46875 1.589843 5.082031-1.457032 10.351563-6.53125 11.691407-8.140626 2.15625-16.28125 3.738281-24.195313 4.699218-4.128906.5-7.070313 4.253906-6.566406 8.382813.5 4.125 4.253906 7.0625 8.378906 6.566406 8.601563-1.042969 17.425781-2.757813 26.238281-5.089844 13.339844-3.53125 21.203125-17.472656 17.046875-30.75-16.707031-53.359375-49.585937-92.789062-104.257812-85.074219 55.015625-30.488281 108.59375-25.71875 196.105469-57.410156 33.582031-9.164062 70.082031 7.351563 84.515624 40.753906 18.867188 43.644532-23.3125 89.289063-62.128906 73.902344-10.714844-4.25-19.136718-12.417968-23.707031-23-7.242187-16.75.453125-36.171875 17.210937-43.410156 17.289063-7.472656 35.796876 6.703125 34.144532 22.210938-8.859375-7.363282-22.304688-3.902344-26.535156 6.765624-6.25 15.769532 12.109374 29.839844 25.730468 19.851563 13.972656-8.558594 19.914063-26.351563 13.230469-41.820313-8.765625-20.277343-32.265625-29.597656-52.546875-20.832031-11.789062 5.09375-20.886719 14.476563-25.621094 26.414063-13.664062 34.46875 15.867188 71.949218 54.011719 71.949218 44.363281-.003906 80.515625-50.609374 60.035156-98.007812-11.207031-25.929688-33.9375-44.570312-61.839843-50.476562 45.28125-23.339844 74.726562-56.347657 92.394531-110.566407zm0 0"/></svg>